<?xml version="1.0" encoding="UTF-8" standalone="no"?>
<!DOCTYPE svg PUBLIC "-//W3C//DTD SVG 1.1//EN" "http://www.w3.org/Graphics/SVG/1.1/DTD/svg11.dtd">
<svg xmlns="http://www.w3.org/2000/svg" xmlns:xl="http://www.w3.org/1999/xlink" version="1.1" viewBox="691 893 289 146" width="289pt" height="146pt" xmlns:dc="http://purl.org/dc/elements/1.1/"><metadata> Produced by OmniGraffle 6.5.2 <dc:date>2016-04-05 00:32:48 +0000</dc:date></metadata><defs/><g stroke="none" stroke-opacity="1" stroke-dasharray="none" fill="none" fill-opacity="1"><title>icons</title><g><title>Layer 1</title><path d="M 772.18727 1003.2596 L 708.64283 969.4988 C 698.37284 988.79877 692.63845 1010.1831 691.875 1032.02833 L 763.83076 1034.5391 C 764.20483 1023.75205 766.99033 1013.03303 772.18726 1003.2596 Z" fill="#bceaff"/><path d="M 797.1849 975.9904 L 759.06055 915.02633 C 740.50896 926.6096 724.8423 942.264 713.25 960.8011 L 774.28257 998.90874 C 777.12063 994.37235 780.5122 990.08337 784.4573 986.1383 C 788.38994 982.2056 792.66434 978.823 797.1849 975.9904 Z" fill="#81ceff"/><path d="M 833.27254 965.09356 L 830.76175 893.25 C 808.89944 894.01285 787.4984 899.74276 768.18337 910.00474 L 801.9558 973.4718 C 811.7391 968.26145 822.47164 965.4687 833.27254 965.09356 Z" fill="#4a9bff"/><path d="M 869.61877 973.4718 L 903.3912 910.00474 C 884.07614 899.74276 862.6751 894.01285 840.8128 893.25 L 838.302 965.09356 C 849.1029 965.4687 859.83547 968.26145 869.61876 973.4718 Z" fill="#1665ff"/><path d="M 873.9713 975.9904 C 878.49186 978.823 882.76626 982.20563 886.6989 986.1383 C 890.644 990.0834 894.0356 994.37235 896.87363 998.90874 L 957.9062 960.80113 C 946.3139 942.264 930.64725 926.6096 912.09565 915.02634 Z" fill="#003cdf"/><path d="M 907.7438 1034.5391 L 979.69956 1032.02833 C 978.9361 1010.1831 973.2017 988.79877 962.93173 969.4988 L 899.3873 1003.2596 C 904.5842 1013.033 907.3697 1023.75204 907.7438 1034.5391 Z" fill="#00267f"/><path d="M 838.07584 1036.90315 L 709.2501 980.1754 L 841.326 1028.8587 Z" fill="black"/><path d="M 838.07584 1036.90315 L 709.2501 980.1754 L 841.326 1028.8587 Z" stroke="black" stroke-linecap="round" stroke-linejoin="round" stroke-width="1"/></g></g></svg>
