<?xml version="1.0" encoding="UTF-8" standalone="no"?>
<!DOCTYPE svg PUBLIC "-//W3C//DTD SVG 1.1//EN" "http://www.w3.org/Graphics/SVG/1.1/DTD/svg11.dtd">
<svg xmlns="http://www.w3.org/2000/svg" xmlns:xl="http://www.w3.org/1999/xlink" version="1.1" viewBox="1272 238 158 80" width="158pt" height="80pt" xmlns:dc="http://purl.org/dc/elements/1.1/"><metadata> Produced by OmniGraffle 6.5.2 <dc:date>2016-04-07 00:41:06 +0000</dc:date></metadata><defs/><g stroke="none" stroke-opacity="1" stroke-dasharray="none" fill="none" fill-opacity="1"><title>icons</title><g><title>Layer 1</title><line x1="1423.25" y1="300.0515" x2="1276.875" y2="300.0515" stroke="#002da4" stroke-linecap="round" stroke-linejoin="round" stroke-width="3"/><path d="M 1384.9785 252.67649 L 1385.1389 257.81158 L 1382.5716 258.1328 L 1381.4479 253.47896 L 1377.1154 254.923 L 1379.041 259.57719 L 1376.9541 260.86095 L 1373.5837 257.16952 L 1370.2147 260.37957 L 1373.7449 263.90976 L 1372.4608 265.83588 L 1367.9669 263.42873 L 1366.0414 267.44034 L 1371.0173 269.36646 L 1370.5352 271.77364 L 1365.2394 271.77364 L 1365.2398 276.58776 L 1370.3751 276.42729 L 1370.8556 278.67426 L 1366.2027 280.921 L 1368.12746 284.93295 L 1372.46136 282.36491 L 1373.5837 284.29107 L 1369.8937 287.98206 L 1373.1032 291.19172 L 1376.6338 287.6611 L 1378.72 288.94469 L 1376.7944 293.59887 L 1381.1272 295.20342 L 1382.5716 290.3893 L 1385.1389 290.71022 L 1385.1389 295.84552 L 1389.47215 295.84552 L 1389.47215 290.87072 L 1392.0398 290.2288 L 1394.126 294.88237 L 1397.3353 293.11745 L 1394.928 288.94452 L 1397.0129 287.50064 L 1400.5453 291.03066 L 1403.9153 287.6611 L 1400.2243 283.9701 L 1401.6686 281.88383 L 1406.4831 283.4886 L 1407.9273 279.63684 C 1407.9273 279.63684 1403.113 278.3533 1402.95256 278.3533 C 1402.7913 278.3533 1403.43365 276.10616 1403.43365 276.10616 L 1408.7298 276.10616 L 1408.7298 271.77364 C 1408.7298 271.77364 1403.43365 271.61317 1403.2734 271.61317 C 1403.113 271.61317 1402.79195 269.52648 1402.79195 269.52648 L 1407.76685 267.76156 L 1406.16175 263.90976 L 1401.8294 266.15684 L 1400.3849 264.07026 L 1403.9153 260.70015 C 1403.9153 260.70015 1400.8653 257.49096 1400.7057 257.49096 C 1400.54545 257.49096 1397.3357 261.5027 1397.3357 261.5027 L 1395.0888 259.89815 L 1397.6564 255.56519 L 1393.9656 253.79992 L 1391.8794 258.29317 L 1389.3109 257.65138 L 1389.4715 252.67649 Z M 1394.37995 266.86566 C 1398.4643 270.95 1398.4643 277.57202 1394.37995 281.65636 C 1390.2956 285.74073 1383.6736 285.74073 1379.58925 281.65636 C 1375.5049 277.57202 1375.5049 270.95 1379.58925 266.86566 C 1383.6736 262.7813 1390.2956 262.7813 1394.37995 266.86566" fill="#f6b025"/><path d="M 1416.2513 253.7431 L 1416.3406 256.60027 L 1414.9121 256.779 L 1414.2869 254.1896 L 1411.8763 254.99307 L 1412.9477 257.58266 L 1411.78654 258.29694 L 1409.9112 256.24303 L 1408.0367 258.0291 L 1410.00095 259.9933 L 1409.2865 261.06499 L 1406.78605 259.72565 L 1405.7147 261.95771 L 1408.4833 263.0294 L 1408.2151 264.36876 L 1405.2685 264.36876 L 1405.2687 267.04734 L 1408.126 266.95805 L 1408.3933 268.20827 L 1405.8044 269.45835 L 1406.8754 271.6906 L 1409.2868 270.26175 L 1409.9112 271.33346 L 1407.8581 273.38713 L 1409.6439 275.17299 L 1411.6083 273.20855 L 1412.7691 273.92274 L 1411.6977 276.51232 L 1414.1085 277.4051 L 1414.9121 274.72652 L 1416.3406 274.90508 L 1416.3406 277.76236 L 1418.7516 277.76236 L 1418.7516 274.99438 L 1420.1802 274.63721 L 1421.341 277.22646 L 1423.1266 276.24446 L 1421.7872 273.92264 L 1422.94725 273.11927 L 1424.9127 275.08337 L 1426.7877 273.20855 L 1424.7341 271.15488 L 1425.5377 269.99408 L 1428.2165 270.88697 L 1429.02 268.74385 C 1429.02 268.74385 1426.3413 268.02969 1426.2521 268.02969 C 1426.16235 268.02969 1426.51975 266.77938 1426.51975 266.77938 L 1429.4665 266.77938 L 1429.4665 264.36876 C 1429.4665 264.36876 1426.51975 264.27948 1426.4306 264.27948 C 1426.3413 264.27948 1426.1627 263.11845 1426.1627 263.11845 L 1428.93075 262.13644 L 1428.0377 259.9933 L 1425.6271 261.24357 L 1424.8234 260.0826 L 1426.7877 258.20747 C 1426.7877 258.20747 1425.0907 256.42188 1425.0019 256.42188 C 1424.9128 256.42188 1423.1269 258.65401 1423.1269 258.65401 L 1421.8767 257.76124 L 1423.3053 255.35038 L 1421.25175 254.36818 L 1420.091 256.86823 L 1418.66185 256.51113 L 1418.7512 253.7431 Z M 1421.4823 261.63796 C 1423.7548 263.91049 1423.7548 267.59498 1421.4823 269.86751 C 1419.20975 272.14005 1415.52525 272.14005 1413.2527 269.86751 C 1410.9802 267.59498 1410.9802 263.91049 1413.2527 261.63796 C 1415.52525 259.36542 1419.20975 259.36542 1421.4823 261.63796" fill="#002da4"/><circle cx="1320.6226" cy="253.45202" r="12.729195" fill="#76aafb"/><circle cx="1320.6226" cy="253.45202" r="12.729195" stroke="#002da4" stroke-linecap="round" stroke-linejoin="round" stroke-width="2"/><circle cx="1298.4258" cy="283.11634" r="12.729195" fill="#76aafb"/><circle cx="1298.4258" cy="283.11634" r="12.729195" stroke="#002da4" stroke-linecap="round" stroke-linejoin="round" stroke-width="2"/><line x1="1306.326" y1="271.88537" x2="1311.8582" y2="264.02075" stroke="#002da4" stroke-linecap="round" stroke-linejoin="round" stroke-width="2"/><path d="M 1362.7519 314.43824 L 1362.7917 314.4032 L 1350.0625 303.18824 L 1337.3333 314.4032 L 1337.3731 314.43824 Z" fill="#002da4"/><path d="M 1362.7519 314.43824 L 1362.7917 314.4032 L 1350.0625 303.18824 L 1337.3333 314.4032 L 1337.3731 314.43824 Z" stroke="#002da4" stroke-linecap="round" stroke-linejoin="round" stroke-width="4"/></g></g></svg>
