<?xml version="1.0" encoding="UTF-8" standalone="no"?>
<!DOCTYPE svg PUBLIC "-//W3C//DTD SVG 1.1//EN" "http://www.w3.org/Graphics/SVG/1.1/DTD/svg11.dtd">
<svg xmlns="http://www.w3.org/2000/svg" xmlns:xl="http://www.w3.org/1999/xlink" version="1.1" viewBox="696 165 241 84" width="241pt" height="7pc" xmlns:dc="http://purl.org/dc/elements/1.1/"><metadata> Produced by OmniGraffle 6.5.2 <dc:date>2016-04-05 00:27:10 +0000</dc:date></metadata><defs><marker orient="auto" overflow="visible" markerUnits="strokeWidth" id="FilledArrow_Marker" viewBox="-1 -3 6 6" markerWidth="6" markerHeight="6" color="#002da4"><g><path d="M 3.2 0 L 0 -1.2 L 0 1.2 Z" fill="currentColor" stroke="currentColor" stroke-width="1"/></g></marker><marker orient="auto" overflow="visible" markerUnits="strokeWidth" id="FilledArrow_Marker_2" viewBox="-1 -3 7 6" markerWidth="7" markerHeight="6" color="#7f7f7f"><g><path d="M 4.8 0 L 0 -1.8 L 0 1.8 Z" fill="currentColor" stroke="currentColor" stroke-width="1"/></g></marker></defs><g stroke="none" stroke-opacity="1" stroke-dasharray="none" fill="none" fill-opacity="1"><title>icons</title><g><title>Layer 1</title><circle cx="726.75" cy="218.8067" r="27.000043" fill="#76aafb"/><circle cx="726.75" cy="218.8067" r="27.000043" stroke="#002da4" stroke-linecap="round" stroke-linejoin="round" stroke-width="4"/><line x1="755.75" y1="218.80668" x2="858.85" y2="218.80668" marker-end="url(#FilledArrow_Marker)" stroke="#002da4" stroke-linecap="round" stroke-linejoin="round" stroke-width="4"/><path d="M 780.5125 165.375 L 810.6044 165.375 C 813.3658 165.375 815.6044 167.61358 815.6044 170.375 L 815.6044 189.8804 C 815.6044 192.64182 813.3658 194.8804 810.6044 194.8804 L 780.5125 194.8804 C 777.75108 194.8804 775.5125 192.64182 775.5125 189.8804 L 775.5125 170.375 C 775.5125 167.61358 777.75108 165.375 780.5125 165.375 Z" fill="#f6b025"/><line x1="775.5125" y1="203.625" x2="857.4625" y2="203.625" marker-end="url(#FilledArrow_Marker_2)" stroke="#7f7f7f" stroke-linecap="round" stroke-linejoin="round" stroke-width="2" stroke-dasharray="4,4"/><circle cx="906.75" cy="218.8067" r="27.000043" fill="#76aafb"/><circle cx="906.75" cy="218.8067" r="27.000043" stroke="#002da4" stroke-linecap="round" stroke-linejoin="round" stroke-width="4"/></g></g></svg>
